<svg xmlns="http://www.w3.org/2000/svg" viewBox="0 0 1920 1080" width="1920" height="1080" preserveAspectRatio="xMidYMid slice" aria-hidden="true">
  <defs>
    <linearGradient id="cr-sky" x1="0%" y1="0%" x2="100%" y2="100%">
      <stop offset="0%" style="stop-color:#1a0a0e"/>
      <stop offset="40%" style="stop-color:#2a1018"/>
      <stop offset="100%" style="stop-color:#14080b"/>
    </linearGradient>
    <linearGradient id="cr-glow1" x1="0%" y1="100%" x2="100%" y2="0%">
      <stop offset="0%" style="stop-color:#BA0F39;stop-opacity:0.28"/>
      <stop offset="50%" style="stop-color:#E11D48;stop-opacity:0.14"/>
      <stop offset="100%" style="stop-color:#FB7185;stop-opacity:0.05"/>
    </linearGradient>
    <linearGradient id="cr-glow2" x1="100%" y1="0%" x2="0%" y2="100%">
      <stop offset="0%" style="stop-color:#F43F5E;stop-opacity:0.16"/>
      <stop offset="100%" style="stop-color:#BA0F39;stop-opacity:0.05"/>
    </linearGradient>
    <linearGradient id="cr-arcGrad" x1="0%" y1="0%" x2="0%" y2="100%">
      <stop offset="0%" style="stop-color:#BA0F39;stop-opacity:0.45"/>
      <stop offset="100%" style="stop-color:#FB7185;stop-opacity:0"/>
    </linearGradient>
    <radialGradient id="cr-burst" cx="50%" cy="40%" r="60%">
      <stop offset="0%" style="stop-color:#BA0F39;stop-opacity:0.22"/>
      <stop offset="70%" style="stop-color:#9F1239;stop-opacity:0.06"/>
      <stop offset="100%" style="stop-color:#450A0A;stop-opacity:0"/>
    </radialGradient>
    <filter id="cr-soft" x="-20%" y="-20%" width="140%" height="140%">
      <feGaussianBlur in="SourceGraphic" stdDeviation="24"/>
    </filter>
    <linearGradient id="cr-fadeBottom" x1="0%" y1="0%" x2="0%" y2="100%">
      <stop offset="50%" style="stop-color:#100507;stop-opacity:0"/>
      <stop offset="100%" style="stop-color:#100507;stop-opacity:0.55"/>
    </linearGradient>
  </defs>
  <rect width="1920" height="1080" fill="url(#cr-sky)"/>
  <ellipse cx="220" cy="880" rx="520" ry="380" fill="url(#cr-glow1)" filter="url(#cr-soft)" opacity="0.9"/>
  <ellipse cx="1580" cy="200" rx="480" ry="420" fill="url(#cr-glow2)" filter="url(#cr-soft)" opacity="0.85"/>
  <ellipse cx="960" cy="320" rx="900" ry="500" fill="url(#cr-burst)" opacity="0.72"/>
  <path d="M-40 720 Q 480 520 960 480 T 1960 380" fill="none" stroke="url(#cr-arcGrad)" stroke-width="3" opacity="0.5"/>
  <path d="M-40 780 Q 520 600 960 560 T 1960 460" fill="none" stroke="#BA0F39" stroke-width="1.5" opacity="0.22"/>
  <path d="M-40 840 Q 560 680 960 640 T 1960 540" fill="none" stroke="#F43F5E" stroke-width="1" opacity="0.18"/>
  <g opacity="0.14" stroke="#BA0F39" stroke-width="1" fill="none">
    <line x1="0" y1="900" x2="1920" y2="820"/><line x1="0" y1="940" x2="1920" y2="860"/><line x1="0" y1="980" x2="1920" y2="900"/>
    <line x1="320" y1="1080" x2="380" y2="760"/><line x1="520" y1="1080" x2="580" y2="740"/><line x1="720" y1="1080" x2="780" y2="720"/>
    <line x1="920" y1="1080" x2="980" y2="700"/><line x1="1120" y1="1080" x2="1180" y2="720"/><line x1="1320" y1="1080" x2="1380" y2="740"/>
    <line x1="1520" y1="1080" x2="1580" y2="760"/>
  </g>
  <g fill="#F43F5E">
    <circle cx="280" cy="180" r="3" opacity="0.55"/><circle cx="420" cy="240" r="2" opacity="0.38"/><circle cx="1500" cy="160" r="2.5" opacity="0.48"/>
    <circle cx="1640" cy="320" r="2" opacity="0.32"/><circle cx="1780" cy="200" r="3" opacity="0.42"/><circle cx="200" cy="400" r="2" opacity="0.28"/><circle cx="1720" cy="480" r="2" opacity="0.3"/>
  </g>
  <g stroke="#FB7185" stroke-width="1" opacity="0.22">
    <line x1="280" y1="180" x2="420" y2="240"/><line x1="1500" y1="160" x2="1640" y2="320"/><line x1="1640" y1="320" x2="1780" y2="200"/>
  </g>
  <g opacity="0.24">
    <rect x="1240" y="620" width="56" height="120" rx="8" fill="#BA0F39" transform="skewX(-8)"/>
    <rect x="1320" y="560" width="48" height="180" rx="8" fill="#E11D48" transform="skewX(-8)"/>
    <rect x="1390" y="500" width="52" height="240" rx="8" fill="#F43F5E" transform="skewX(-8)"/>
  </g>
  <rect width="1920" height="1080" fill="url(#cr-fadeBottom)"/>
</svg>
